<svg version="1.0" xmlns="http://www.w3.org/2000/svg" width="933.333" height="933.333" viewBox="0 0 700 700"><path d="M0 195c0 133.3.3 195 1 195 .6 0 1.3-.7 1.6-1.5.9-2.2 2.4-.8 2.4 2.4 0 2.9 1.6 5.1 3.6 5.1 2.7 0 4.4-3.2 4.4-8.3 0-3.4.7-6.3 2-8.5 2.8-4.6 2.5-7-1-9-4.2-2.4-4.6-4.3-1.6-6.9 2.7-2.3 3.3-4.7 1.6-5.8-.5-.3-1-1.2-1-2 0-1.9 6.4-8.5 8.3-8.5.8 0 2.2 1.7 3 3.7 1.9 4.8 6.3 9.1 7.8 7.6.6-.6.9-2.8.7-4.9-.3-3.3-.8-4.2-3.7-5.6-4.4-2.2-5.1-3.4-4-7.2.5-1.7.9-4.4.9-5.9 0-4.5 3.2-3.1 4.2 1.8.5 2.2 1.3 4.4 1.8 4.9.9.9 13 .9 16.2 0 1-.3 2-2 2.4-4.2 1-5.4 2.2-7.2 4.8-7.2 1.9 0 2.8.9 4 4.1 1.9 4.6 2.7 4.3 4.6-1.5 1.5-4.8.2-7.8-4.5-10.1-4.1-1.9-4.9-1.9-6.5 0-1.6 1.9-14.3 2.1-15.7.2-.6-.6-1.3-2.9-1.7-5-.4-2-1-3.7-1.5-3.7-1.7 0-5.1-4.2-5.1-6.4 0-3 1.9-3.8 5.1-2 3.2 1.8 6 1.7 8.8-.2 2.1-1.5 2.3-2.2 1.6-6.3-.4-2.5-.8-6.1-.9-8-.3-2.8-.9-3.7-3.7-5-3.7-1.8-4.7-4.6-2.7-7.4 1.7-2.3 3.8-1.5 6.3 2.6 3.4 5.4 10.2 5 13-.9 1.4-3 1.5-4.4.7-7.3-.6-2-.8-4.8-.5-6.3.4-2.3.1-2.8-2.1-3.4-3.9-1-5-2.8-3.2-5.6 1.4-2.2 1.4-2.6 0-4.6-1.4-2-1.3-2.4.5-4.9 1.1-1.6 2.2-5.1 2.6-7.9.6-5.1.6-5.2-2.9-7.3-5.6-3.5-6.1-9.5-.8-10.7 4.5-.9 5.7-2 5.7-5 0-1.6.4-4.4.9-6.2.9-3.7-1.2-7.2-4.4-7.2-.9 0-2.4-.8-3.4-1.8-1.5-1.8-1.5-2.1.5-4.5 2.6-3.4 3.9-3.4 6.3.1 3.9 5.8 11.2 7.9 15.7 4.3 3.2-2.5 5.5-10.2 3.8-12.8-2-3.3-5.1-4.7-11.4-5.3-5.6-.5-6-.7-6.3-3.2-.2-1.5.4-3.8 1.3-5.2.9-1.3 1.5-3.9 1.3-5.6-.3-3.1 1.4-4.8 6.5-6.4 1.6-.5 1.6-.8.2-4.3-.9-2-2.2-4.5-3-5.3-3.4-3.7-.2-7.8 3.4-4.5 1.1.9 2.2 2.7 2.5 4 .4 1.4 1.8 2.7 3.6 3.4 1.7.5 3.4 2.1 3.9 3.4 1.2 3.2 3.6 4 5.6 2 2.2-2.2 1.5-4.4-2.2-6.8-3.1-1.9-3.2-2.3-3.3-8.8 0-5.3.5-7.7 2.2-10.7 2-3.4 2.1-4.1.8-6.4-.8-1.7-1.9-2.5-2.8-2.1-.8.3-2.1 0-2.9-.7-.9-.7-3.2-1.2-5.1-1.3-5.2 0-5.6-3-.8-5 3.3-1.4 3.5-1.8 3.8-6.7.3-4.8.6-5.4 3.1-6.3 2.4-.8 3.1-.6 4.3 1 .8 1 1.4 2.9 1.4 4.2 0 2.8 2.4 4 4.5 2.3 3.2-2.7 1.2-8-3.1-8-1.2 0-2.5-.7-2.8-1.6-1.1-2.9-.6-7.9 1-10.2 1.7-2.5 5.2-2.9 6-.7.7 1.7 5.4 2.1 5.4.4 0-.6-.5-1.9-1-3-1.9-3.4.5-9.7 4.5-11.6 4.2-2 5.7-1.4 9.5 3.9 2.6 3.6 3.8 4.4 7.3 4.8 3.9.5 4.2.7 4.5 3.7.4 4.5 3 5.7 10.3 4.9 5.3-.6 6.1-.5 8.2 1.6 1.8 1.8 2.5 3.9 3 9.1.8 8.2 1.6 9.8 6.8 13.4 2.3 1.5 4.8 4.1 5.8 5.6 1.5 2.7 1.5 2.9-.8 4.8-1.3 1-3.5 1.8-5 1.7-4.5-.3-5.4.9-4.8 6.6.3 2.8.8 5.8 1.2 6.7.3.8-.5 3.1-2 5.3-1.4 2-2.5 5-2.5 6.7 0 2.6.7 3.3 5.4 5.6 3 1.5 5.9 3.7 6.5 5 .6 1.3 2.3 2.8 3.8 3.4 7.7 3 9.3 4.2 9.3 6.9 0 1.5-.9 3.5-2.1 4.6-4.1 3.7-4.3 5.2-1.2 9.6 2.3 3.5 2.8 5.2 2.9 10.7 0 3.6.4 8.2.8 10.2.7 3.2.5 3.9-2 6.3-1.6 1.4-3.8 2.6-5 2.6-1.9 0-5.4 2.8-5.4 4.2 0 .4 1.5 1 3.3 1.3 1.7.4 4.1 1.5 5.2 2.5 1.1.9 3.4 2.5 5.1 3.5 1.7.9 3.9 3.3 4.9 5.1 1 1.9 3.8 5.4 6.3 8 5 5 5 7.3.1 8.4-5.4 1.3-4.5 10.9 1.6 17.4 3.2 3.4 3.4 4 3.4 10.6 0 3.9-.5 7-1 7-.6 0-2.1 1.1-3.4 2.5-3.7 3.6-3.3 8.2 1 13.2 2.9 3.5 3.5 4.9 3.5 9 .1 4.5.4 5 4 7.5 2.2 1.5 4 3.2 4 3.7 0 1.6-3 4.1-4.9 4.1-2.3 0-4.8 2.7-5.6 6.2-.9 3.7 1.4 7.5 6.1 10.2 6.2 3.5 5.6 7.4-1.3 8.3-3.8.5-4.1.8-4.7 4.2-1.2 7.2-.7 11.7 1.5 13.7 2.7 2.4 4 5 4.4 8.2.1 1.4 1.7 3.9 3.4 5.4 1.7 1.5 3.1 3.3 3.1 3.9 0 .5-1.6 2.5-3.5 4.3-4.5 4.3-4.5 7.2 0 13.9 2.8 4.1 3.5 6.2 3.5 9.8 0 4.4-.2 4.8-3.1 5.8-1.8.6-4 1.1-4.9 1.1-.9 0-2.5 1.5-3.5 3.4-1.8 3.4-1.8 3.6.1 7.1 1 2 3.1 4.8 4.6 6.2l2.8 2.7 2.5-2.4 2.5-2.4 2.8 2.1c2.2 1.7 2.7 2.8 2.5 6.2-.2 3.7.1 4.2 2.5 4.7 4.1 1 5.2 2.3 5.2 6.3 0 2.1.6 4.6 1.4 5.7 1.3 1.7 1.2 2.2-1.1 4.6-3.8 4-3.7 10.9 0 13.8 3.2 2.6 3.3 3.4.7 8.8-2.9 6-2.6 8.7 1.1 10.2 1.7.7 3.5 2.4 4 3.7.7 2 1.2 2.2 2.8 1.3 1.1-.5 2.7-2.8 3.7-5 1.8-4 3.2-5.1 3.6-2.8.1.7.2 5.7.2 11.2.1 10.6 0 10.5 6.1 12.3 2.1.6 3.3 1.8 4.1 4.1.5 1.7 1.5 3.7 2.2 4.4 2.8 2.8 6-6.6 4.7-13.6-.6-2.7-1.3-3.8-3.1-4.2-3.3-.8-4.7-3.8-4.9-10.2-.2-5.1-.2-5.2 2.5-5.2 2.1 0 3 .7 4 3 1.2 2.9 6.8 7 9.6 7 1.8 0 3.7-4.6 2.9-7.1-.4-1.1-2.2-2.6-4-3.3-1.8-.8-3.9-2.5-4.6-3.8-1.6-3-2.8-3.8-6.2-3.8-2 0-3.7 1-5.5 3-2.9 3.2-5.3 3.8-7.1 1.6-.6-.7-2.5-1.6-4.3-2l-3.1-.6.6-7.2c.5-6.2 1-7.5 3.5-9.8 2.3-2 2.9-3.3 2.5-5.3-.6-3 3-11.2 5.2-12.1 2-.7 1.9-4.5-.1-5.3-1.1-.4-1.3-1.3-.9-3.3.5-2.2.1-3.2-1.8-4.7-3.5-2.7-4.5-5.2-4.9-12-.3-7.7.9-9.3 7.2-9.3 5.4 0 6.7 1.1 6.8 5.8.1 4.5 2.6 8.2 5.7 8.2 3 0 5-3 5.9-8.8.9-5.8-.6-8.2-4.9-8.2-1.8 0-3.7-.5-4-1.1-.4-.5-2.5-.9-4.6-.7-3.4.3-4.2-.1-5.7-2.4-1.5-2.6-1.5-2.8.6-5.1 3-3.2 2.8-5.5-1-9.5l-3.3-3.4 3.5.6c5.1.8 6.4-.4 6.6-6.6.1-2.9.5-6.5.9-7.9.6-2.1.1-3-2.9-5.3-2-1.5-3.6-3.3-3.6-4.1 0-.8 2.2-2.9 4.9-4.6l4.8-3.2-.1-8.8c-.1-8-.3-9-2.4-10.4-2.1-1.5-2.9-4.5-1.6-5.8.4-.4 2 .3 3.6 1.4 6.4 4.6 13.8 1.8 13.8-5.2 0-4.3-2-6.7-9.5-11.9-5.8-4-7-6.2-5.3-9.8 1-1.9 1.1-3.5.4-5.5-.8-2.1-.6-3.1.7-4.4 1.5-1.6 1.8-1.5 3.6.1 1.3 1.2 2.1 3.4 2.3 6.5l.3 4.6 6 .6c13 1.4 17.4-2.7 9.7-8.9-2.2-1.7-4.5-4.4-5.1-6.1-.9-2.1-2.2-3.2-4.4-3.6-7.4-1.4-8.7-2.5-8.7-6.6 0-2.9-.6-4.5-2.5-6.1-1.4-1.2-2.5-2.6-2.5-3.2 0-1.5 4.6-4.9 8.3-6.1 2.1-.7 3.4-2.1 4.5-4.8 1.5-3.8 1.4-3.9-1.7-7.1-4.1-4.2-4-7.1.3-9.7 4.1-2.4 5.2-4.7 3.3-6.7-1.2-1.1-1.9-1.1-3.6-.3-3.9 2.1-5.6-1.4-2.6-5.3 2.2-2.9 1.8-5.5-1-6.6-2.9-1.1-3.1-2.2-.9-5.5 1.3-2 2.5-2.5 5.5-2.5 5.2 0 5.2-2.3-.1-5-2.2-1.1-4-2.5-4-3 0-.6 1-3.1 2.1-5.6 1.8-3.7 2-5 1-7-.6-1.4-1.1-3.8-1.1-5.4 0-2-.9-3.5-3-5-4.5-3.2-3.5-8 1.5-8 1.2 0 3-.9 4-2 1.7-1.8 1.7-2.5.5-7.6-1.1-4.5-1.1-6.2-.1-9 1.1-3.2 1.1-3.7-.6-4.9-1-.7-3-1.6-4.6-1.9-5.2-1.1-4.8-6.9.8-10.7 2.7-1.9 3.5-3.1 3.5-5.4 0-1.7-.5-3.6-1.1-4.2-1.6-1.6-.4-2.9 3.2-3.7 4-.8 3.6-3.6-.9-5.5-2.9-1.3-3.7-2.6-3.3-5.7.1-.6-.6-1.7-1.4-2.4-.8-.7-1.5-1.8-1.5-2.5 0-2.6 4-10.1 6.9-12.9 1.7-1.7 3.1-3.7 3.1-4.6 0-3.1 3.4-5 8.7-5 3.5 0 5.8-.6 7.4-1.9 2.4-1.9 2.4-1.9.5-5.4-2.2-4.2-1.5-5.7 2.5-5.7 3.7 0 6.9 3.2 6.9 6.8 0 1.6.6 3.6 1.3 4.6 1.4 1.9 2.4 1.9 10.1 0 3.1-.8 3.1-.9 1 9.5-.8 3.9.4 5.1 5.3 5.1 2.7 0 3.6.6 4.9 3.2 3 6.1 8.6 8.7 11.4 5.3 2-2.4 5.2-1.4 7.7 2.4 3.1 4.6 2.9 7-1.2 11.8-4.5 5.3-4.7 9.1-.5 10 3.8.7 4 1.1 4.4 7 .2 4.7.3 4.8 3.8 5.1 5.2.4 6.1 2 4.6 7.5-.9 3.5-1.9 4.8-4.3 6-2.8 1.3-3.3 2.2-4 6.4-1.5 10.3-.8 12.6 4.3 12.9 2.1 0 2.7.6 2.7 2.4 0 1.7-.7 2.6-2.9 3.1-4.8 1.3-6.3 3.4-6.1 8.7.3 7 1.2 8.9 5.6 11.4 4.5 2.5 4.5 3.9.3 5.3-3.8 1.3-4.6 2.4-3.9 6 .5 2.8 2.7 5 5.1 5 .6 0 2.4 1.5 3.9 3.3l2.8 3.3-2.3 2.4-2.3 2.4 2.7 3.1c1.8 2.2 2.6 4.3 2.6 7.1 0 3.6.4 4.2 4.5 6.7 5.2 3.1 5.9 4.9 5.1 12.4-1.6 14.5-1.7 17.7-.9 19.3.7 1.2.4 3.3-1 7l-1.9 5.3 2.5 5c1.4 2.7 2.8 6.4 3.2 8.1.4 1.8 1.7 4.2 2.9 5.4 3.4 3.4 3.6 5 2.2 16.8-1.4 10.8-.9 17 1.4 18.4 1 .6 5-4.2 5-6.1 0-2.6 1.7-1.4 2.6 1.7 1.3 4.5 3.6 5.7 6.8 3.6 2.8-1.9 3.5-5.4 1.4-7.5-.9-.9-.8-1.8.2-3.8 1.3-2.3 1.3-2.7-.5-4-1.2-.9-3-1.2-4.8-.8l-2.8.6.4-9.7c.3-8.1.7-9.9 2.4-11.7 1.7-1.6 2.4-1.8 4.2-.9 2.3 1.3 2.7 3.1 1 4.8-3.8 3.8 7 10.6 11.8 7.5.7-.4 1.5-2.2 1.9-3.9.5-2.5.2-3.3-2.3-5-1.5-1.1-3.8-2.4-5.1-2.7-1.4-.5-2.2-1.5-2.2-3 0-3.6-2.3-5-6.2-3.7-2.4.9-3.3.8-4-.1-.9-1.6 0-8.1 1.9-12.5l1.3-3.2 3.6 1.5c4.6 1.9 6 1.4 6.8-2.7.5-2.7.2-3.8-2.1-6.1-1.5-1.5-3.7-2.8-4.9-2.8-4.1 0-3.6-1.9 2-7.6 4.3-4.3 5.7-5.2 6.1-4 .3.9.7 2.3 1 3.1.6 2.1 5.1 2.9 8.5 1.5 3.3-1.4 4-4 1.1-4-2.1 0-3.3-2.2-2.5-4.5.4-1 0-1.5-1.4-1.5-3.2 0-11-5.7-11.4-8.3-.2-1.4-1.1-2.3-2.5-2.5-2.9-.4-3 2-.3 5.5 1.1 1.4 2 3 2 3.4 0 1.8-3.8.8-6.4-1.6-4.1-3.8-3.5-7.4 2.4-13.7 2.7-2.9 5.7-6.9 6.6-8.8 1.6-3.2 1.6-3.6 0-6.4-2.1-3.6-.9-5.2 3-3.9 1.8.6 3.1 1.9 3.5 3.7.4 1.6 1.5 3.6 2.4 4.6 1 1.1 1.6 3.3 1.5 5.2-.3 5.6-.1 6.6 1.9 7.3 4.4 1.4 6.9-2 4.6-6.4-1.2-2.5-1.2-3.1.2-5.2.9-1.3 2.2-2.9 3-3.5 2-1.7.5-4.4-2.4-4.4-1.5 0-3.5-1.2-5.1-3-1.5-1.7-3.4-3-4.4-3-.9 0-2-.4-2.3-1-.3-.6-1.9-1-3.6-1-2.9 0-3.9-1.3-1.9-2.5 1.6-1 1.2-4-1-6.8-2.7-3.4-2.5-4.2 1.1-8.9 2.2-2.7 3.2-5 3.1-7.1-.1-1.8.3-4.7.9-6.5 1.3-3.9.5-8.2-1.5-8.2-.8 0-2.4-.9-3.7-1.9l-2.4-1.9 2.1-2.9c1.2-1.5 3.1-2.9 4.3-3.1 1.2-.2 2.6-1.4 3.1-2.7.5-1.3 2.3-3.4 4-4.7 3.7-2.7 3.7-5.7-.2-7.6-3.5-1.6-6.8-6.3-6.7-9.4.1-3.9 3.3-8.3 6.2-8.6 3.7-.5 3.4-2.8-.8-6.6-1.9-1.8-3.5-3.9-3.5-4.7.1-2.2 3.5-5.7 6.3-6.5 2.3-.5 2.5-.9 1.6-2.6-.7-1.3-1.6-1.7-3-1.3-4.6 1.5-6.6-5.4-3.2-11.4 1.7-2.9 1.7-3-.5-5.4-2.9-3.1-2.8-3.9 1.1-8 1.7-1.9 3.7-4.1 4.3-4.8.6-.8 2.3-2.4 3.8-3.6 2.2-1.9 2.6-3.1 2.6-7.5 0-6.2-.6-7.3-4.1-8.1-1.5-.4-3-1.4-3.3-2.3-.9-2.3 2.1-10.4 4.7-12.9 1.2-1.2 2.7-2.9 3.2-3.9.6-1 2.4-1.9 4.4-2 3-.2 6.1-2.6 6.1-4.7 0-1.2-3-3.9-4.4-3.9-.8 0-1.9-.7-2.6-1.5-.8-.9-3-1.5-5.6-1.5-4.1 0-4.4-.2-4.4-2.6 0-4.9 1.6-6.4 7-6.4 4.4 0 5.2-.4 7.7-3.5 4.3-5.4 10.2-4.4 12.9 2.1.9 2.2 2.1 3.4 3.4 3.4 1.1 0 2.4.9 3 1.9 1.3 2.5 11.7 7.3 14.1 6.6 1-.3 2.8-2.3 4.1-4.3 4.4-7.3 7.1-8.1 9.3-2.9.7 1.8 2.8 4.7 4.5 6.6 3.1 3.2 3.2 3.6 2.6 8.9-.4 3-.1 8.1.5 11.5 1.3 6.5.7 7.5-5.1 8.7-3.8.8-4 4.7-.3 5.6 1.5.4 3.6 1.3 4.5 2.2 1.7 1.4 1.6 1.6-.1 4.1-4.5 6.5-3.1 10.3 4.3 11.4 6.6 1 8.6 3 8.6 8.7 0 5.6-1.4 7.5-6.4 8.4-2.1.4-3.6 1.3-3.8 2.4-.6 2.7 1.2 7.1 3.2 7.7 1 .3 2.3 1.9 3 3.5.7 1.7 2.4 3.6 3.7 4.3 3.1 1.5 5.3 7.4 5.3 14.4 0 3.6-.5 5.5-1.5 6.1-2.6 1.4-3 7.4-.7 9.8 3.7 3.9 4.2 5.8 2.7 10-1 2.8-1.2 6.5-.8 12.9.5 7.3.2 9.7-1.1 12.2-1.8 3.6-2.1 7.9-.6 8.8 1.8 1.1 4.1 7.1 3.8 10.1-.1 1.6.4 3.9 1.1 5.2 1.6 3.1 5.1 14 5.1 16.2 0 1-1.6 3.8-3.6 6.1-3.2 3.8-3.5 4.8-3.1 8.4.4 2.6 1.5 4.8 3.2 6.2 3.6 3.1 8.5 13.9 8.5 18.8 0 2.2.5 5.8 1 8 .6 2.2 1 11.8 1 21.4.1 10.5.5 18.2 1.1 19.4.6 1.1 1.6 4.1 2.3 6.6.7 2.8 1.7 4.6 2.5 4.6s2.8-2.7 4.3-6c4.6-9.6 5.5-11 8-11.5 3.1-.8 3-3.5-.2-3.5-4.2 0-3.9-4.4.9-11.1 2.3-3.2 4.1-6.5 4.1-7.4 0-.9 1.1-2.7 2.5-4 3-2.8 3.2-4 .7-4-3.3 0-4.2-2.2-4.2-9.6 0-9 1.2-12.2 4.8-13.5 2.7-.9 6.2-6.2 6.2-9.3 0-1.5 4.2-5.6 5.8-5.6.7 0 1.2-.4 1.2-.9s.3-1.6.6-2.5c.5-1.3-.1-1.6-2.5-1.6s-3.1-.4-3.1-2c0-1.1.6-2.3 1.4-2.6 2.2-.8 3.9-6 3.2-9.6-1.9-9.1-1.9-10.1-.2-11 1.6-.9 1.6-1.2.2-3.3-2-3-2-7.4-.1-9.9.8-1.1 1.5-2.8 1.5-3.8 0-1.1.9-2.8 2-4 2.9-3.1 3.7-10.4 1.5-14.1-1.3-2.2-1.7-5-1.7-11.1.2-18.2.8-21.1 5.2-26.1 1.4-1.5 1.9-4.1 2.2-10.6.3-8.2.5-8.8 4.1-13.5 3.7-4.8 3.8-5.1 3.4-11.4-.3-3.6-.8-8-1.2-9.9-.7-3.1-.6-3.2 1.3-2.2 1.1.6 3.2 1.1 4.6 1.1 2.2 0 2.6-.5 2.6-2.8 0-3.1-2.7-6.2-5.3-6.2-1 0-1.7-.8-1.7-1.8 0-2.3 3-5.2 5.3-5.2 2.5 0 3.2-2 3.4-10.5.1-4.4.5-12.3 1-17.5l.8-9.5 3.4-1.1c5.4-1.7 6.1-7.3 1.1-8.9-4.4-1.4-4.2-3.8 1.1-11.9 2.9-4.3 6.3-8.3 8-9.2 1.6-.8 3.7-3 4.6-4.9 2.4-5 5.4-5.9 13.8-3.8 7 1.8 7 1.8 8 5.9 1.1 4.7 3.6 7.9 6.8 8.8 1.4.4 3.3 2.8 5.1 6.4 2.4 4.7 3 7.3 3.4 14.9.5 9.5 2 12.4 4.2 8.3.6-1.1 2.1-2 3.3-2 3.4.1 10.2 3.5 12.1 6.1 2 3 2 5.7 0 14.2-1.4 5.4-1.4 7.2-.5 9 .7 1.2 2.1 3.8 3.1 5.7 1.6 2.9 1.9 5.7 2 15.8 0 13.2 1.4 18.6 5.9 22.6 2.5 2.3 2.8 7.8.6 9.6-3.2 2.6-1.2 9 4.2 13.3 3.1 2.5 2.9 4.3-1.2 8.4-3.6 3.6-4.3 6-2.5 9.4.8 1.4.7 2.5-.5 4.1-3.1 4.6-1.4 7.9 4.7 8.7 5.8.8 7.3 3.7 5.3 10.4-1 3.4-1.1 5.5-.5 7.3 1.6 4 1.2 5.1-1.7 5.7-1.6.3-3.7 1.2-4.8 2-1.9 1.5-1.9 1.5.4 3.4 1.9 1.6 2.5 3.1 2.7 7.1.3 5.2 6 18.8 9 21.2 1.9 1.6 1.8 7-.3 15.2-1.6 6.3-1.6 6.9 0 10.3 2.1 4.4 2.1 6.2.1 11-1.9 4.6-1.3 7.7 3.3 16.2 3.4 6.3 3.6 6.9 3 14.2-.7 10.1-.2 12.3 4.6 17.6l4 4.6-1.1 6.5c-1.3 7.6-.6 10.7 4.3 18.5 4.2 6.9 4.3 8.4.7 10.1-1.5.7-2.7 2.1-2.6 3.1 0 .9.1 3.5.2 5.7.2 2.8 1.1 4.9 3.2 7.3 1.7 1.9 3 3.9 3 4.4 0 .5 1.6 2.5 3.6 4.4 3.3 3.1 3.5 3.8 3.1 7.9-.9 8.1-3.1 16.5-4.7 17.7-1.3 1-1.2 1.6.7 5.5 1.2 2.3 2.5 6 2.8 8.1.4 2 2 5.3 3.5 7.2 3.5 4.4 4.5 11.8 3.5 25-.4 6.3-.3 9.5.4 9.9.6.4 1.1 3.7 1.1 7.6 0 5.1.6 8 2.1 11 1.7 3.3 2.1 5.2 1.6 9.5-.3 3-1.3 6.5-2.1 7.7-2.3 3.2-2 6.1 1 8.9 1.4 1.3 3 3.3 3.4 4.4.5 1.1.9-114.9.9-257.8L700 0H0v195z"/><path d="M569.6 87.3c-2.7 1.9-1.9 9.1 1.1 9.5 2.7.4 5.3-3.2 5.3-7.5 0-2.8-.4-3.3-2.3-3.3-1.3 0-3.1.6-4.1 1.3zm-164.8 6c-1.3 1.3-3.5 3.1-5 4-3.3 2.1-3.9 7.2-1.1 9.2 2.3 1.7 3.9.9 6.4-3.2 1.2-1.9 3.2-3.9 4.5-4.3 3-1.2 3.3-5.5.5-7-2.6-1.4-2.7-1.3-5.3 1.3zm-311.4 17c-1 2.6 0 8 1.7 9 2.3 1.4 6.9 0 6.9-2.1 0-.9-1.8-3.2-4-5-3.1-2.6-4.1-3-4.6-1.9zm311.9 12.9c-.9 1.8-1.7 4.6-1.7 6.2-.1 2.8-1.1 3.8-4.8 5-3.8 1.1-1.2 7.6 3 7.6.5 0 3-2.8 5.6-6.2 5.2-7.1 6.3-12.8 2.7-14.8-2.8-1.4-2.9-1.4-4.8 2.2zM262 130.4c0 2.2.6 3.6 1.6 4 3.2 1.2 4.4.6 4.4-2.2 0-3.2-1.6-5.2-4.2-5.2-1.4 0-1.8.8-1.8 3.4zm295.6 7.1c-2.4 2.4-2 5.4.8 6.1 4.5 1.1 6.1.2 6.1-3.6 0-3-.4-3.5-2.6-3.8-1.5-.2-3.4.4-4.3 1.3zm-470 6.1c-.9 2.4 1.2 5.4 3.9 5.4s8.6 3.6 12.5 7.5c1.4 1.4 3.2 2.5 4.1 2.5 1.6 0 4.9-3 4.9-4.4 0-.4-1.9-2.9-4.2-5.7-4-4.6-4.6-4.9-9-4.9-2.7 0-4.8-.5-4.8-1 0-1.7-6.7-1.2-7.4.6zm371.1 9.1c-2.4 2.3 3.7 6.8 6.9 5 2.9-1.5 2.9-1.5.9-3.7-1.7-1.9-6.4-2.7-7.8-1.3zm-193.5 1.4c-3.2 1.2-3.8 3.7-1.4 6.1 2.5 2.6 4.7 1.8 5.6-1.8.9-3.5-1-5.5-4.2-4.3zm133.1 9.5c-.3.8.1 2.2.9 3.1 2 1.9 5.8.1 5.8-2.7 0-1.6-.7-2-3-2-1.9 0-3.3.6-3.7 1.6zm139.7 1c0 4.1 1.8 6.4 5 6.4 2.6 0 6-2.9 6-5.2 0-1.2-5.7-3.8-8.5-3.8-2 0-2.5.5-2.5 2.6zm-438.8.6c-.7.7-1.2 2.6-1.2 4.4 0 2.5-.7 3.6-3.4 5.5-5.6 3.8-6.5 7.8-2.8 12.1 3.5 4.1 5.7 2 9.7-9.2 2.5-6.9 2.7-8.3 1.6-11.3-1.2-3-2.1-3.3-3.9-1.5zm159.5 11.7c-.3 1.1.6 3.4 2.1 5.5 1.4 2 2.8 5.3 3.1 7.3.6 3.4 1 3.8 3.9 4.1 4.3.4 4.9-1.5 2.6-9-1.4-4.7-2.5-6.5-4.8-7.9-4-2.4-6.2-2.4-6.9 0zm304.1 4.3c-3.2 1.1-3.6 3.6-1.2 7.3 2.1 3.2 4.9 3.2 7-.1 1.3-1.9 1.5-3.2.8-5.2-1.1-3-2.7-3.5-6.6-2zm-147.5 2.5c-1.7.6-1.6 3.8.1 5.3.8.6 1.6 2.6 1.8 4.3.3 2.9.6 3.2 3.8 3.2 3.5 0 3.5 0 3.4-4.2-.1-3.3-.7-4.8-2.8-6.8-2.7-2.5-3.9-2.8-6.3-1.8zm-23.3 5.7c0 4 2 4.8 5.4 2.3 2.9-2.1 1.6-5.1-2.2-5.5-3.1-.3-3.2-.2-3.2 3.2zm-280.3 6.4c-2 2.2-2.4 13.1-.5 15 1.7 1.7 6.3 1.5 7.8-.3.7-.8 1.5-3.5 1.7-6 .5-3.9.2-4.7-2.5-7.5-3.5-3.5-4.3-3.6-6.5-1.2zm175.9 1.7c-2.5 2.6-2.1 6.3.9 7.1 5.1 1.3 7.3-4.3 2.9-7.3-1.9-1.2-2.4-1.2-3.8.2zm301.2 1c-1 2.1-.9 2.9.5 4.3 1.6 1.5 1.8 1.5 3.7-.4 1.8-1.8 1.9-2.1.4-4.2-2-2.9-3.2-2.8-4.6.3zm-500.7.4c-.9 1.5-.6 2.2 1.3 3.4 2.2 1.5 2.5 1.5 4-.2.9-1 1.6-2.5 1.6-3.4 0-2.5-5.6-2.3-6.9.2zm162.5 3.6c-3.3 3.4-1.1 6.5 4.5 6.5 4.6 0 5.8 1.5 6.6 7.9.7 6.3 2.5 8.1 5.3 5.6 1.6-1.4 2-3.1 2-7.7 0-3.3-.5-6.8-1-7.9-2.3-4.3-14.4-7.3-17.4-4.4zm141.6 9.3c-1 .7-1.1 1.8-.5 4.3.9 3.1 1.2 3.4 4.9 3.4 3.4 0 3.9-.3 4.2-2.5.1-1.4-.1-3.1-.6-3.7-1-1.6-6.3-2.6-8-1.5zm157.8 1.7c-1.6 1.9-.3 5.5 1.9 5.5 1 0 2.5-.8 3.5-1.9 1.3-1.4 1.4-2 .4-2.8-2.4-1.9-4.7-2.2-5.8-.8zm16.3 1.3c-1.4.9-2 6.2-.9 8 1.3 2.1 4.6 1.3 5.8-1.3 2-4.5-1.3-9-4.9-6.7zm-475.9 4.7c-3.9 4-4 4.4-2.7 6.9 1.7 3.3 3.3 3.3 6.3.1 3.1-3.3 4.3-3.2 8.9 1 2.1 1.9 4.2 3.5 4.5 3.5.4 0 .6-1.7.4-3.7-.3-3.2-.8-4-3.9-5.5-2-.9-4.3-2.8-5.3-4.2-.9-1.4-2.2-2.6-2.9-2.5-.6 0-3 2-5.3 4.4zm-25 5.1c-.5 1.8-.1 3.4 1.3 5.2 2.8 3.7 5 3.9 6.5.7 1.1-2.5 1-3-2-5.6-4-3.6-5-3.6-5.8-.3zm213.9 1c-2.2 3.4-1 5.3 4.5 7.3 4.8 1.7 5.8 1.2 6.7-4 .7-3.6.7-3.6-3.9-4.8-5.8-1.4-5.3-1.5-7.3 1.5zm130.4 2.9c-1 7.2 1.4 10 5.9 7 2.8-1.8 3-4.1.7-7.5-3.7-5.4-5.9-5.3-6.6.5zm-152.6 6.8c-3.3 1.6-3.7 3.5-1 4.5 1.2.5 2.9 2.4 3.8 4.3 2.9 6.2 8.8 4.5 9.8-2.9l.6-4.3-3.6.3c-2.2.1-4.3-.4-5.4-1.5-1.5-1.3-2.3-1.4-4.2-.4zm-162.4 4.8c-2.4 4.3-2.2 5.6 1.7 7.4 1.8.9 4.6 2.9 6.1 4.5 3.1 3.3 5.6 3.8 7.4 1.6 1.7-2 .1-4.6-5.1-8.7-2.4-1.7-5.2-4.2-6.3-5.5l-2-2.3-1.8 3zm488.8-.1c-3.7 2.5-3.8 4.2-.2 5.4 3.7 1.3 6.2-.3 6.2-4 0-3.5-1.9-4-6-1.4zm-34 0c-1.1 1.8.6 5 2.5 5 2.5 0 5.5-4.1 3.7-5.2-1.7-1.1-5.5-1-6.2.2zM65.7 254.7c-1.2 1.1-.8 6.8.5 8.1 1.7 1.7 6.5 1.5 7.6-.4.7-1.3 0-2.5-2.8-5-4-3.6-4.3-3.8-5.3-2.7zm19 0c-2.9.8-1.7 4.6 2 6.3 2.1.9 3.3 2.2 3.3 3.5.1 3.3 1.5 4.7 4.6 4.3 2.8-.3 2.9-.1 3.2 4.2.4 5 2.5 8 5.7 8 3.4 0 4.5-2 4.5-8.5-.1-5.7-.3-6.3-4.5-10.8-2.7-3-5.2-4.7-6.7-4.7-1.2 0-3.2-.7-4.2-1.5-2-1.5-4.4-1.7-7.9-.8zm325.6 5.9c-2 2-2.2 2.7-1.3 4.5.7 1.1 2.7 2.7 4.6 3.5 1.9.8 3.4 2 3.4 2.8 0 .8.8 2.4 1.8 3.6 1.4 1.8 2.5 2.2 4.5 1.6 2.3-.5 2.7-1.2 2.7-4.1 0-2.6-.6-3.9-2.5-5.1-1.4-.9-3.2-3.1-3.9-4.9-1.9-4.4-6-5.2-9.3-1.9zm-288.7 2.2c-1 1.6 1.7 9.3 3.6 10.3 1.1.6 3.5 2.8 5.5 5 4.6 5 7.3 5.2 7.3.4 0-3-.5-3.7-3.9-5.4-3-1.6-3.8-2.6-3.8-4.6 0-1.4-.9-3.5-1.8-4.5-1.8-2-5.9-2.7-6.9-1.2zm137.8 2.7c-2.4 2-2.7 2.7-1.8 4.2.6 1 2.6 2 4.5 2.3 2.5.4 3.5 1.1 3.7 2.6.5 3.4 4.4 4.9 8.9 3.6 2.1-.6 4.8-1.4 6.1-1.8 2.2-.6 2.3-.7.6-2.5-.9-1-2.6-1.9-3.7-1.9s-3.5-1.1-5.3-2.5c-1.8-1.4-3.7-2.5-4.3-2.5-.5 0-1.4-.6-1.8-1.3-1.5-2.5-4-2.5-6.9-.2zm32.8.7c-3.5 3.5 1.4 8.2 6.3 6 3-1.4 3.2-3.3.7-5.5-2.2-2-5.3-2.2-7-.5zm287.1 3.8c-2.9 1.2-2.9 2.1 0 4.8 2.3 2.2 2.4 2.2 4.1.3 3.5-3.8.8-7.1-4.1-5.1zm-45.7 3.1c-2.1 2.5-3.1 2.9-5.4 2.4-2.3-.5-3.1-.1-4.2 2-1.5 2.9-.5 5.8 2.2 6.3 2 .4 14.4-7.4 15.2-9.5.8-2-1.1-4.3-3.4-4.3-1 0-3 1.4-4.4 3.1zm-459.9 5.6c-.4.3-.7 1.6-.7 2.7 0 2.1 1.4 3.3 7.4 6.7 1.7.8 3.5 2.4 4 3.3.6 1 2.9 3.7 5.2 6.2 2.8 3.1 4.5 4.3 5.7 3.8 2.6-.9 2.1-4.9-.8-6.8-1.5-1-2.5-2.6-2.5-4 0-5-2-8.5-5.6-9.6-2-.7-3.8-1-4-.7-.3.3-2.1-.1-3.9-.9-4-1.6-4-1.6-4.8-.7zm39.3 10.8c0 1.5-.9 3.1-2.5 4.1-4.3 2.8-2.4 7.3 3.7 8.8 1.5.3 3.2 1.5 3.8 2.6.6 1.1 1.7 2 2.6 2 2.2 0 2.9-2.8 1.2-4.8-.9-1-1.5-3.7-1.5-6.9 0-5.9-1.4-8.3-4.9-8.3-1.9 0-2.4.5-2.4 2.5zm145.1 1c-3.7 4.3-3.8 5-.7 7 3.5 2.3 7.4 1.5 9.4-1.8 1.5-2.5 1.5-2.9 0-5.5-2.4-4-5-3.9-8.7.3zm167.4 3.2c-1.1.2-3 .6-4.3.9-1.8.4-2.1.8-1.3 2.3.7 1.2 2.6 2 6.1 2.4 5.7.7 7.6.2 8.4-2 1.3-3.4-2.6-5-8.9-3.6zM377 307.2c0 3.3 1.8 4.8 5.5 4.8 3.4 0 6.1 2.2 6.7 5.5.5 3.1 4.2 3.1 5.6 0 1.5-3.2 1.5-4 .1-8.9-1-3.6-1.2-3.8-4.2-3.1-4.2.9-7.6.9-10.9 0-2.5-.7-2.8-.5-2.8 1.7zm-290.5-.5c-1.1.3-2.4.9-2.9 1.4-1.4 1.3-6.4 1.1-10.3-.3-3.6-1.3-5.7-.6-7.7 2.4-.8 1.3-.3 2.4 2.2 5 1.8 1.8 4.4 4.4 5.7 5.8 1.4 1.4 2.5 3.1 2.5 3.7 0 1.8 5 4.4 7.8 4.1 2.9-.3 2.8.3 2-9.7-.1-2.1.3-3.6 1.1-3.9.6-.2 2.1-1.3 3.1-2.4 1.5-1.6 1.7-2.5.8-4.4-.6-1.3-1.4-2.3-1.7-2.3-.3.1-1.5.3-2.6.6zm195.9 3.8c-1.9 2.6-3.4 3.5-5.5 3.5-1.5 0-4.4.8-6.3 1.7-6.7 3.4-3.5 6.3 6.7 6.3 6.4 0 6.5 0 8.1-3.5 1-1.9 3-4.5 4.7-5.7 3.2-2.4 3.7-4.3 1.3-5.2-3.7-1.4-6.3-.5-9 2.9zm127.6 1c-4.3 1.6-4.7 3.1-2.1 9.1l2.1 4.7 5.7-.7c5.7-.7 10.3-2.7 10.3-4.6 0-.5-1.5-1.6-3.3-2.4-2.1-.8-3.8-2.5-4.6-4.5-1.4-3.4-2.6-3.6-8.1-1.6zm172.7 7c-2.8 4.7-3.1 6.2-2.1 8.9.8 2.1 2.5 2 6.3-.2 3.9-2.2 4.5-3.7 2.7-7-.8-1.5-1.7-3.5-2-4.5-.8-2.7-1.9-2.1-4.9 2.8zm-462.5-1.9c-.7.4-1.7 1.7-2.2 3-.8 2-1.6 2.4-5.3 2.4-4.5 0-6.7 1.3-6.7 4.1 0 2.4 2.4 4 6.8 4.6 3.6.5 4 .3 6-3.1 2.5-4.2 4.8-4.5 8.1-1 2.8 2.9 3.6 2.3 4.4-2.8.4-2.7.1-4-1.3-5.3-1.9-1.7-7.6-2.8-9.8-1.9zm422.5 3.1c-1.3 1.2-.7 6.5 1 9.4 1.9 3.3 4.9 3.8 6.9 1.1 2.3-3 1.6-5.8-2-8.6-3.6-2.7-4.8-3.1-5.9-1.9zM296 326.9c-1.9.5-2.6 1.5-2.8 3.7-.3 2.6.2 3.2 3 4.4 2.7 1.2 3.4 2.1 3.6 5 .2 1.9.8 3.8 1.4 4.1 1.7 1.1 4.8-.2 6.5-2.8 1.5-2.3 1.4-2.6-1.6-6.1-1.7-2-3.6-4.9-4.2-6.5-1.1-2.8-1.7-3-5.9-1.8zm-159.2 7.2c-2.1 1.2-2.4 5.9-.6 7.7 1.5 1.5 5.3 1.6 7.9.2 1.8-1 1.8-1.2.3-4.3-2.5-4.7-4.3-5.6-7.6-3.6zm137.2 1.3c0 4.3-1 5.6-4.6 5.6-2.1 0-4 .8-5.4 2.2-2.6 2.9-2.5 3.3.9 4.8 2.6 1 3.4.9 6.8-1.4 2-1.4 4.9-2.6 6.3-2.6 3.3 0 5-1.7 5-5.1 0-3.2-3.2-5.9-6.7-5.9-1.8 0-2.3.6-2.3 2.4zm-192.5 3.1c-.5.2-2.7.6-4.7 1-6 1-5.2 3.9 3.1 10.9 7.1 6 12.5 9.1 17.1 9.8 2.3.3 2.5 0 2.3-3.2-.4-7.4-1.3-9.9-4.1-10.2-1.8-.2-3.5-1.7-5.5-4.6-2.7-4-4.7-4.9-8.2-3.7zm320.7 4.1c-4.3 2-5.3 2.9-5 4.7.3 2 .9 2.2 5.7 2.2 3 0 5.6.5 5.8 1.1.2.6-.3 2.5-1 4.3-1.1 2.6-1.1 4.3-.3 8.1 1.3 5.7 3.2 8.3 4.2 5.7.3-1 .4-2.7.1-3.8-.3-1.2.4-4.7 1.5-7.7 2-5.3 2-5.8.4-8.5-.9-1.6-1.6-3.4-1.6-4.1 0-1.2-3.1-4.7-4.1-4.5-.2 0-2.8 1.1-5.7 2.5zm36.6 1.5c-2.3 1.3-2.3 6.1 0 8.9 1.6 2 2.3 2.1 4.8 1.3 3.9-1.3 4.5-5.5 1.3-8.9-2.5-2.6-3.5-2.9-6.1-1.3zm74 3.9c-.6 3.8-.3 4 4.3 4 2.8 0 4.1-.5 4.9-2 .8-1.5.8-2.1-.2-2.4-.7-.2-2.8-.9-4.7-1.5-1.9-.6-3.5-1.1-3.6-1.1-.2 0-.5 1.4-.7 3zm-397.7 1.9c-1.2.8-1.2 1.4-.1 4 .7 1.7 1.6 3.1 2.1 3.1s.9 2.2.9 4.9c0 6.1 1.8 7 7.5 4.1 2.2-1.1 5.9-2 8.2-2 4.1 0 4.3-.2 4.3-2.8 0-4.1-3.3-6.7-8.1-6.6-3.3.1-4.3-.4-6-2.7-2.1-3-5.9-3.8-8.8-2zm143.6 6.9c-4.5.4-5.5 2.1-3.2 5.6 2.1 3.1 6.3 4.5 7.6 2.5 1.1-1.7 1.2-7.7.2-8.1-.5-.2-2.5-.2-4.6 0zM59 359c-1.5 2.7 1.4 6.8 8.5 12 3 2.2 5.6 4.4 6 5 .8 1.3 7.2 1.3 8 0 .3-.5-1-2.6-2.9-4.6-2-2.1-3.6-4.7-3.6-6 0-1.8-.7-2.4-3.4-3-1.9-.3-4.4-1.7-5.7-3-2.7-2.9-5.5-3.1-6.9-.4zm320.9-1c-.1.3-.3 2.2-.4 4.2-.1 2-1 5.3-2 7.4-1.3 2.8-1.5 4.2-.6 6 1.7 3.7 5.6 4.1 11.8 1 2.9-1.4 6-2.6 6.8-2.6 4.1 0-2.3-8-9.1-11.5-2.1-1.1-4.4-2.7-5.1-3.5-.7-.8-1.3-1.3-1.4-1zm-83.2 1.6c-1.4 1.5-.6 3.7 2.6 7.4 1.7 2 4 4.7 5 5.9 1.4 1.8 2.4 2.1 5.5 1.6 6.2-1.1 9.2-2.6 9.2-4.7 0-1-.6-2-1.2-2.2-7-2.2-11.2-4.3-11.6-5.8-.2-1-1-1.8-1.7-1.8s-2.5-.3-4.1-.6c-1.6-.3-3.2-.2-3.7.2zm191.8 2.4c-2.6 2.9-1.3 4.8 3.7 5.2 3.8.3 4.3.6 5.2 3.5.7 2.5 1.5 3.3 3.2 3.3 2.3 0 6.4-4.6 6.4-7.2 0-2.3-3.4-4.8-6.3-4.8-1.4 0-2.9-.5-3.2-1-1.1-1.8-7.1-1.1-9 1zm-451.7 4.1c-1 1.7-1.8 4.1-1.8 5.3 0 1.2-.4 2.6-1 3.2-.6.6 0 2.1 1.6 4.2 2 2.5 3.3 3.2 6 3.2 2.3 0 3.4.5 3.4 1.5 0 1.2 2.8 3.5 4.4 3.5 1.9 0 3.6-3.7 3.6-7.9 0-5.2-1.8-7.8-4.6-6.7-2 .8-4.4-1-4.4-3.3 0-1.5-3.8-6.1-5.1-6.1-.2 0-1.2 1.4-2.1 3.1zm576.2-1.2c0 1.6.6 2.1 2.6 2.1 3.3 0 3-3.3-.4-3.8-1.7-.3-2.2.2-2.2 1.7zm-334 4c-1.5 2.8-1.2 5.7.6 7.2 2.3 1.9 7-1.1 6.6-4.2-.5-4.8-5.2-6.7-7.2-3zm250.5-.7c-1.1 3.6-1.4 8.7-.6 9.2.5.3.7 1.5.4 2.5-.9 3.5 1.8 3.5 4.8 0s3.6-5.4 2-6.3c-.4-.3-1.1-1.9-1.4-3.6-.5-2.2-1.2-3-2.7-3-1.1 0-2.2.6-2.5 1.2zm-421.8 5.6c-2.2 2.4-2.1 3.5.4 5.8 1.2 1 3.2 3.6 4.6 5.7 1.3 2.1 3.4 4.2 4.6 4.6 1.2.5 3 1.9 4 3.1 2.4 2.8 6.1 2.3 6.5-.9.3-1.7-.7-3.5-3.2-6-2-2-5.9-6-8.6-8.9-2.7-2.8-5.3-5.2-5.8-5.2s-1.6.8-2.5 1.8zm244-1.1c-.2.5-.7 2.5-1.1 4.5-.5 3-.3 4.1 1.4 5.8 1.1 1.1 2.7 2 3.5 2 2 0 3.6 3.2 2.4 5.1-.5.7-.9 3-.9 5 0 4.5 2.5 6.9 7.3 6.9 4.2 0 6-2.4 7.2-9.7.5-3.5.4-4.4-1-4.9-1.1-.5-1.6-1.7-1.5-3.8.4-6.5.3-6.6-4.6-6.6-3.7 0-5-.5-6.6-2.5-1.9-2.4-5.2-3.3-6.1-1.8zm-215.4 4.8c-3.7 1.6-4.5 4.8-1.5 6.3 3 1.6 9.2 2.1 12.2 1 3.8-1.3 3.9-3.9.4-6.7-3.1-2.4-6.6-2.6-11.1-.6zm279.9 2.2c-1.3 2.6.1 6.7 2.3 7.2 3.1.5 4.4 2 5.5 6.2 1.1 3.8 1.1 3.9 5.9 3.9 6.5 0 8.8-2.4 7.5-7.8-.7-2.9-1.4-3.7-3.2-3.8-1.3-.1-3.5-1.3-5-2.6-5.3-5-11.3-6.4-13-3.1zm-397 7.5c.3 6.1.4 6.3 3.6 7.4 1.7.5 3.7 1.5 4.4 2.2 1.8 1.8 4.6 1.4 5.8-.7 1.6-3 1.3-3.6-2.5-5.4-1.9-.9-3.5-2.4-3.5-3.2 0-2.1-4.5-6.5-6.5-6.5-1.3 0-1.5 1.1-1.3 6.2zm244.2-2.5c-.5 1.9-.2 3 1.1 4 2.3 1.6 2.7 1.6 5-.1 1.7-1.2 1.8-1.8.7-4-1.6-3.7-5.9-3.6-6.8.1zm-15.6-.6c-2 1.1-2.4 4.4-.7 5.4 1.6 1 5.6-.3 6.3-2 1.4-3.7-1.8-5.7-5.6-3.4zm-157.5 4.8c-2.7 2.3-2.8 3.4-.7 6.6 2 3.1 3.5 3.6 7.8 2.4 4.6-1.3 4.7-3.5.3-7.7-3.8-3.7-4.4-3.8-7.4-1.3zm-22.8.1c-5.6.5-6 .7-6.3 3.2-.3 2.9 2.3 7.8 4.2 7.8 1.9 0 5.8 8.1 4.5 9.6-.7.9-.7 1.9 0 3.3.6 1.1 1.1 2.9 1.1 4 0 2.7 3.1 2.8 5.5.1 1.1-1.2 1.6-2.9 1.3-4.5-.3-1.4-.2-2.8.3-3 1.2-.8.5-12.3-.9-13.7-.7-.7-1.2-2.2-1.2-3.4 0-3.2-1.9-4-8.5-3.4zm226.5 5.8c0 3.1.5 4.2 1.8 4.6 1 .4 2.9 2.6 4.1 5.1 2.6 5.2 4.6 5.7 8.5 2 3-2.8 3.5-6.4.9-6.7-1 0-2.4-.2-3.2-.2-.8-.1-1.7-1-2.1-2.1-1.1-2.8-4-5.2-7.2-6-2.7-.7-2.8-.6-2.8 3.3zm255.1 3.1c-1.8 1.2-.7 4.1 1.7 4.1 2.1 0 4.2-1.8 4.2-3.7 0-1.5-3.8-1.7-5.9-.4zm-54.5 1.6c-1.3 3.4 1.1 5.5 6.2 5.4 2.6-.1 5.9.2 7.5.6 2.3.6 2.7.4 2.7-1.4 0-2.9-3.5-4.8-10.1-5.6-4.7-.6-5.7-.4-6.3 1zm-219.8 2.6c-1.5 1.9-3.1 2.9-4.8 2.9-1.5 0-3.5.9-4.5 2-1.7 1.9-1.6 2 1.6 3.3 12.6 5.3 14.3 4.6 14-5.9-.1-5.5-3.1-6.6-6.3-2.3zm-146.2-.4c-.3.4-.6 1.9-.6 3.4 0 1.8-.9 3.2-2.6 4.4-2.3 1.5-2.5 2.1-2 5.3.4 2.1.9 5.5 1.3 7.7.7 5.4 1.9 6.8 4.7 5.3 3.1-1.6 3.6-2.7 3.6-8.9 0-4.1.5-6.3 2-8.2 2.3-2.9 2.5-5 .7-6.5-1.9-1.6-6.4-3.2-7.1-2.5zm120.1 2.1c-2.3 2.5-2.2 2.8 1.1 4 3.4 1.2 6.2-.5 6.2-3.7 0-1.6-.6-2.1-2.8-2.1-1.6 0-3.6.8-4.5 1.8zm341.3.3c-1.4 2.6.3 4.9 3.5 4.9 2.3 0 3.5-1.7 3.5-5.1 0-2.8-5.5-2.6-7 .2zM4.7 407.8l-2.6 2.7 2 3.3c1.6 2.4 2.8 3.2 5.1 3.2 3.6 0 6.8-1.6 6.8-3.4 0-1.7-5.9-8.6-7.4-8.6-.7 0-2.4 1.2-3.9 2.8zM395 406c-.8.5-2.7 1-4.2 1s-2.9.4-3.2.9c-.8 1.2 2.4 3.8 5.5 4.6 1.6.4 3.1 1.8 4 3.8 1.1 2.6 2 3.2 4.4 3.2h3l-.2-5.8c-.1-3.5-.8-6.3-1.7-7.2-1.7-1.7-5.4-1.9-7.6-.5zm-348.9 4.2c-1 2.7-.4 4.8 1.4 4.8.7 0 2.2 1.6 3.4 3.5 1.1 1.9 2.4 3.5 2.9 3.5s1.5 1.4 2.2 3c1.3 3.3 4.4 5.5 6 4.5.6-.3 1-2.4 1-4.6 0-3-.6-4.6-2.5-6.3-1.5-1.4-2.5-3.4-2.5-5 0-1.7-.7-2.9-1.7-3.2-1-.3-2.6-1-3.5-1.5-3-1.6-5.8-1-6.7 1.3zm276.5 2.4c-1.7 1.6-2.2 5.9-.8 6.8 1.6.9 9.1-.7 9.6-2.1.7-1.6-3.6-6.3-5.8-6.3-.8 0-2.2.7-3 1.6zm-222.8.5c-3.8 2.1-.4 8 5.3 9.4 5 1.2 6.8-3.9 3.4-9.5-.8-1.3-6.5-1.3-8.7.1zm42.5 1c-2.7 1-2.8 2.5-.7 7.9 1.1 2.6 2.8 4.7 4.7 5.7 3 1.5 3.2 1.5 5.5-1.2l2.4-2.8-3.1-2.4c-1.7-1.4-3.1-3-3.1-3.7 0-2.4-3.3-4.4-5.7-3.5zm274.7 2.1c-1.1 1.8-2 3.6-2 4 0 .3 1.5 1.6 3.4 2.8 1.9 1.1 3.6 3.1 3.8 4.3.3 1.9.9 2.2 5.2 2.2 3 0 5.1-.5 5.3-1.2.3-.7-1.6-3.4-4-6-2.5-2.6-4.6-5.7-4.8-6.8-.7-3.5-4.6-3.1-6.9.7zm-46.5.2c-1.5 1.1-1.8 2.4-1.6 7.3.3 6.8 1.2 6-11.2 9.8-6.5 2.1-7.1 2.6-6.3 6 .4 1.7 1.4 2.5 3.4 2.7 2.1.2 3.3 1.4 5.2 5 1.8 3.4 3.2 4.8 5.2 5.2 1.6.3 3.9 1.8 5.1 3.2 2 2.2 2.7 2.5 4.4 1.6 2.4-1.3 4.8-6.5 4-8.6-.3-.8-2.5-1.8-4.9-2.3-6.2-1.2-6.3-3.9-.2-9.8l4.7-4.6-.7-5.6c-.7-5.9-2.4-10.4-4.1-11-.6-.2-1.9.3-3 1.1zm142.1.2c-1.6 4.2 1.3 8.4 5 7 2-.8 1.7-5-.4-6.9-2.3-2.1-3.8-2.1-4.6-.1zm-490.9 3.2c-1.2 1.3-1.7 3.7-1.7 7.9 0 5.9.1 6.1 3.1 7.2 5.7 2 6.7 1.5 9.5-4.6 3.1-6.5 2.6-8.4-2.5-9.4-1.8-.4-3.8-1.2-4.4-1.8-1.5-1.5-2.1-1.4-4 .7zm265.9-.5c-1.7 1.3-1.5 1.6 2.3 4.6 2.2 1.8 4.1 3.8 4.1 4.5 0 1.7-3.3 4.6-5.2 4.6-1.7 0-2.8 2-2.8 5 0 .9-.7 2.3-1.5 3-1.3 1-1.9 1-3.3-.4-1-.9-2.3-1.6-2.9-1.6-.5 0-1.5-1.1-2.1-2.4-.8-1.8-1.6-2.3-3.1-1.9-2.6.7-2.6 1.5-.1 3.8 1.1 1 2.5 3.7 3.1 5.9 1.3 5 2.3 6.2 6.5 8.2 5.2 2.5 6.5 1.4 6.3-4.9-.3-6.4.2-7.3 4.1-8.2 2.2-.5 3.2-1.4 3.6-3.3.4-1.5 1.5-3.4 2.5-4.2 4.2-3.5 2.8-10-2.1-10-1.1 0-2.4-.9-3-2-1.2-2.3-3.8-2.6-6.4-.7zm154 13.9c-2.1 4-2 4.2.9 8.6 1.4 2 2.5 4.7 2.5 6 0 3.3 2.9 4 5.1 1.1 2-2.6 2.5-8.4.9-9.4-.5-.3-1-1.9-1-3.4 0-1.9-.8-3.4-2.5-4.5-3.4-2.2-4.1-2-5.9 1.6z"/><path d="M88.7 432.6c-.3.4.3 1.8 1.4 3.2 1.9 2.5 1.9 2.5-.1 4.7-1.7 1.8-2 3.5-2 11.8 0 7.9-.3 9.7-1.5 9.7-.8 0-2.2-1.1-3.1-2.4-.8-1.4-2.7-2.6-4.2-2.8-2-.2-2.9-1.1-3.6-3.4-.6-2.1-2.1-3.7-4.2-4.7-2.2-1.1-3.4-2.5-3.9-4.6-.7-3.1-6.2-8.5-9.5-9.4-1-.2-2.4-.1-3.1.4-1.1.6-.9 1.2.5 2.8 1.1 1.2 2.5 2.1 3.3 2.1.8 0 1.3 1.2 1.3 3.3 0 2.5.6 3.6 2.1 4.3l2 .9-2 2.7c-1.2 1.4-2.1 4-2.1 5.6 0 4.1-.8 4.4-5.9 2.1-7.8-3.5-11.4-2.3-10.9 3.7.3 3.5.6 3.9 3.3 4.2 2.1.2 3.7 1.3 5.4 3.7 4.7 6.9 10.9 4.7 7.1-2.6-1.2-2.2-.8-2.4 5.2-3.2 5-.7 7.3 1.1 7 5.7-.2 3.2 0 3.6 2.9 4.4 1.8.4 4.1 1.9 5.2 3.4 1.6 2.2 1.7 2.9.6 4.9-.7 1.3-1.5 3.7-1.9 5.4-.4 2.3-1.2 3.1-3.3 3.3-3.6.4-6.7 5.3-6.7 10.5 0 5.9 1.4 7.7 6 7.7 7.4 0 7.1 6.5-.4 7.7-1.9.3-4.3 1.4-5.3 2.5-1.5 1.7-1.6 2.6-.5 8.9 1.8 10.3 1.1 11-8.8 10.7-7.2-.3-8-.1-9.9 2.1-3.7 4.2-3.7 6.8-.2 10.5 2.5 2.5 3.1 4.1 3.1 7.4 0 3.9-.2 4.1-3.4 4.8-3.2.6-3.5.9-3.8 4.7-.3 3.7-.6 4.2-3.5 5-2.4.7-3.4 1.7-3.8 3.8-1 4.3.1 6.4 4 7.8 3.1 1.1 3.5 1.7 3.5 4.6 0 2.3-.6 3.8-1.8 4.4-2.6 1.4-5.2-.5-5.2-3.8 0-3.9-2.1-6.4-5.1-5.9-2 .2-2.5.9-2.7 4.1-.2 2.1.6 6.1 1.7 9.1l2 5.3-2.7 2.6-2.6 2.6 2.2 5.3c2.6 6.4 2.7 8.1.5 10.3-1.1 1.2-2.5 1.5-4.9 1-2.8-.5-3.6-.2-5 2s-1.5 2.9-.3 5.7c1.2 2.9 1.1 3.2-1.7 5.4-1.6 1.3-3.5 2.4-4.2 2.4-.7 0-1.9 1.5-2.7 3.4-1.4 3.4-9.1 10.6-11.4 10.6-.8 0-1.1 6.2-1.1 22.5V700h700v-15.1c0-14.8 0-15-2.1-14.4-1.2.4-4 .2-6.4-.5-3.7-1-4.7-.9-8.3.9-6 3-9.6 1.3-8.5-4.1.4-1.8-.2-4.4-1.5-7.1-1.2-2.3-2.4-5.9-2.7-7.9-.6-3.9-2.8-5.8-8.7-7.2-3.5-.8-8.3-4.9-9.7-8.4-.9-2.1-.9-4.1.2-8.7 1.2-5.3 1.7-6 4.6-7 7-2.3 5.7-6.3-2.5-7.3-3.5-.4-4.9-1.1-6.1-3.1-.9-1.4-2.9-4-4.4-5.6-2.3-2.6-2.7-4.1-3.3-11.8-.7-9.2-2-12.8-7-19.2-2.3-2.9-3-4.8-3.1-8.5-.1-3.8-.6-5.3-2.4-6.7-2.1-1.7-2.8-3.7-4.8-13.5-.4-2.1.1-3 2.1-4.3 1.4-1 2.6-2.3 2.6-3 0-1.4-6.2-6.5-7.9-6.5-2.2 0-5.1-6.4-5.1-11.1 0-2.5-.5-5-1-5.5-1.3-1.3-2.9-13.9-2.3-18 .4-2.8.2-3.2-2.4-3.8-4.4-1.1-6.3-3.5-6.3-7.6 0-2.1-.7-5.6-1.5-7.9-.8-2.3-1.4-6.9-1.4-10.2.1-3.4-.4-6.6-1-7.2-.6-.6-1.1-1.8-1.1-2.8 0-.9-.9-2.7-1.9-4.1-1.6-2-3-2.5-7-2.7-4.3-.1-5.1.2-5.1 1.6 0 1-.9 3.1-2 4.8-1.5 2.3-1.9 4-1.4 7.1.4 3 .2 4.4-1 5.3-1.9 1.6-2.2 10.1-.5 13.2 1.3 2.5.4 5.2-3.1 9.2-1.5 1.8-3.1 4.3-3.5 5.7-.4 1.4-1.6 3.6-2.6 5-1.9 2.7-2.9 15-1.5 18.1.5 1.1.1 2.2-.9 3-5.5 4.6-5.7 5-5 9.4.5 3.9.3 4.6-1.9 6-1.3.9-2.9 2.9-3.4 4.5-.6 1.6-2 3.3-3.1 4-1.4.7-2.1 2.1-2.1 4 0 1.6-.9 4.6-2.1 6.7-1.2 2-1.7 3.9-1.3 4 3.7 1.2 7.9 4.1 8.2 5.5.2.9-.8 2.8-2.2 4.2-1.5 1.4-2.6 3.5-2.6 4.6 0 2.9-1.8 6.1-4.8 8.4-2 1.6-2.3 2.5-1.8 5.5 2 12.1 2 11.6-.8 13.8-2.8 2.2-3.2 4.3-1.6 7.3 1.5 2.9-.7 6.2-3.2 4.9-1.1-.6-3.6-.9-5.6-.7-3.3.3-3.7.6-4 3.5-.2 2.4.1 3.3 1.7 3.8 2.3.7 2.8 3.4 1 5.2-1.2 1.2.5 4.9 3.9 8.2 2.7 2.7-.6 12.1-4.3 12.1-.7 0-2 .9-3 2-1.7 1.9-1.7 3.2 0 8.7.6 1.8.1 2.4-2.8 3.7-5.1 2.1-5.9 6.7-2.3 13.9l2.6 5.2-2.6 2.3c-3 2.6-4.2 2.7-9.1.7-2-.9-3.9-1.2-4.3-.8-.4.5-2.1 2.7-3.9 5-2.1 2.8-4 4.3-5.5 4.3-2.7 0-10.6-7.6-10.6-10.1 0-2.2-1.9-2.9-4.3-1.7-4.2 2.2-11.3-2.3-12.3-7.7-.3-1.9-1.2-3.5-1.9-3.5-1.5 0-6.7-5-10.2-9.8-2.9-3.9-3.1-8.2-.3-8.2 2.2 0 4.4-3.4 3.6-5.6-.4-1-1.7-1.4-3.8-1.2-2.9.3-3.3.7-3.6 3.5-.3 2.6-.9 3.4-3.9 4.3-3.9 1.3-4.4 1-6.3-4-.8-1.9-2.4-5.2-3.7-7.2-2.9-4.8-3.1-12.3-.4-15.6 2.5-2.8 2.7-2.8 6.2 1l2.9 3.2 2-2c2.7-2.6 1.9-4.3-3.5-7.6-3.2-1.9-4.4-3.4-4.7-5.4-.2-2-1-3-2.7-3.4-1.3-.3-2.7-1.2-3.1-2-.4-.8-1.4-2.9-2.3-4.5-4.4-8.2-4.4-7.5-1.4-10.1 4-3.4 6.5-3.2 6.9.8.3 2.7.9 3.4 4.4 4.6 5.3 1.9 8 1.1 6.3-1.9-.6-1.2-2.6-3.7-4.5-5.5-2.5-2.6-4.2-3.4-6.8-3.4-2.9 0-3.8-.5-5.1-3-.8-1.6-2.6-4.5-3.9-6.4-2.1-3.1-2.2-3.9-1.3-7.6.9-3.2.8-4.5-.3-6.3-2.9-4.6-4-7.5-3.4-9.1 1-2.7 4.1-1.9 5.3 1.4 1.2 3.7 3.8 3.9 5.1.4 1.4-3.5 1.3-3.8-1.2-4.9-1.8-.8-2.3-1.8-2.3-4.5 0-1.9-1-5.2-2.2-7.3-2.8-4.7-2.9-5.7-.4-5.7 1.1 0 3.2 1.6 4.7 3.6 2.3 3 3.2 3.5 6.3 3.2 3.1-.3 3.6-.7 3.6-2.8 0-2-.7-2.6-3.8-3.5-4.7-1.3-6.4-3.8-4.8-7.1.6-1.4 1.6-2.1 2.4-1.8.8.3 1.7-.3 2.1-1.3 1.2-2.9-2.8-5.3-8.8-5.3-7.1 0-10.1-3.1-11-11.2-.7-6.9-2.3-10.6-4.7-11.3-3.3-1.1-4.2.4-3.6 6.4.3 4 .1 6.3-.9 7.6-.8 1-1.4 3.2-1.4 4.8 0 3.1-.4 3.2-7.8 1.1-1.8-.5-2.4-.1-3.7 2.9-2.1 5-1.2 6.4 4.2 7 5.2.6 7.3 2.6 7.3 6.6-.1 3.6-1.9 5.6-5.7 6.4-4.1.8-6.3 0-6.3-2.3 0-2.9-2.7-4.5-5.5-3.2-3.4 1.6-3.2 2.5 1.6 6.9 6.9 6.3 7 6.4 6.4 8.5-.4 1 0 3 .9 4.3.9 1.3 1.6 4.1 1.6 6.2 0 2.4.9 5.2 2.5 7.5 3.2 4.8 3.2 8.8 0 11.8-1.4 1.3-2.5 3.4-2.5 4.6 0 1.4-1.3 3.3-3.5 5-3.8 2.9-4.1 4.1-2.3 9.1 1 2.6.9 4-.1 6.9-1.2 3.5-1.2 3.7 1.8 6.8 3.6 3.7 3.8 4.9 1.2 7.3-2.4 2.2-4.2 8.9-4 14.6.1 5.3-1.5 11.8-3.5 13.2-.9.7-1.3 2-.9 3.4.8 3.1-1.6 7.1-4.2 7.1-1.1 0-2.6.5-3.3 1.2-.9.9-1.8.9-3.7 0-1.9-.9-2.5-1.9-2.5-4.5 0-4.5-1.8-6.6-6-7.3-5-.7-6.5.6-5.2 4.5 1 2.8.8 3.5-2.2 7.3-3.9 5.2-6.2 5.4-8.7.9-2.2-4.2-3.5-5.1-7.5-5.1-3.9 0-5-1.3-5.9-6.9-.5-2.9-1.8-5.5-4.1-7.9-3-3.2-3.4-4.3-3.4-8.8 0-2.9-.4-5.6-1-5.9-1.7-1-1.1-5.1 1-7.8 2.7-3.4 2.5-5.9-.5-8.7-1.4-1.3-2.5-3.3-2.5-4.6 0-1.2-.7-3.5-1.5-5-1.4-2.7-1.3-3 .5-3.8 3.7-1.7 1.4-10.6-2.8-10.6-.9 0-3.9-2-6.5-4.4l-4.9-4.4 1.3-4c1-3.5.9-4.6-.6-7.8-1.3-2.9-1.5-4.1-.6-6.1 1.5-3.3 1.4-5.9-.5-8.8-1.3-1.9-1.6-4.8-1.5-12.8.1-9.6-.5-12.3-3.7-17.6-.1-.3-1.3.6-2.6 1.8-1.3 1.3-3.5 2.2-4.8 2.1-4.4-.4-5.7 0-6.3 2-1.3 4.1.3 6 5 6s5.7 1.2 4.4 4.9c-.8 2.1-1.4 2.3-4.9 1.7-2.5-.4-4.1-.2-4.6.6-.4.7-.2 1.4.6 1.6.7.3 2.6 1.7 4.3 3.3 2.7 2.6 2.9 3.2 2.3 7.2-.5 3.5-.4 4.6.9 5 3.1 1.2.4 11.7-3 11.7-.8 0-3.1-1.8-5.1-4-2-2.2-4-4-4.5-4-.4 0-1.9 1.2-3.2 2.6-2.4 2.5-2.4 2.7-.8 5.5.9 1.6 3 3.4 4.9 4 1.8.6 3.6 1.7 3.8 2.4.3.7 1.4 1.5 2.5 1.8 1.5.4 1.9 1.4 1.9 4.4 0 2.1-.5 4.4-1.2 5.1-.8.8-1.2 4-1 9.2.2 7.8.1 8.1-2.3 9-2.1.8-2.5 1.6-2.5 5.1 0 3.2-.6 4.5-2.5 6.1-2.7 2.1-3.2 5.6-1.3 8.8 1 1.5 1 2.7 0 5.4-.7 1.9-1 4.6-.6 6 .5 2 .1 2.7-2.4 4-2.7 1.4-4.1 3.7-5.7 9.2-.7 2.7 1.8 5.4 5.1 5.4 1.4 0 2.7.6 3 1.3.9 2.4-1.4 6.5-4.5 7.8-1.7.8-3.1 1.9-3.1 2.6 0 .7-.7 3.1-1.6 5.3-2.2 5.4-6.4 8.3-12.8 8.6-2.8.1-5.7.3-6.3.3-2.8.2-5.3 4.1-5.3 8.1 0 4.5-1.8 6-7.5 6-5 0-6.3-3-4.1-9.3 1.5-4.5 1.3-7.7-.5-7.7-.5 0-1.8-.9-2.9-2-1.7-1.7-2-2.8-1.4-6.9 1.2-9.5-3.9-12.2-13.1-7-5.1 2.9-5.5 3.3-5.5 6.9 0 2.3.9 5.1 2.5 7.4 2.7 4.1 3.1 6.6 1.3 8.4-1.9 1.9-3.7 1.4-4.4-1.3-.4-1.7-1.5-2.7-3.3-3.1-7.4-1.5-8.6-2-8.9-4.1-.2-1.2.8-3.3 2.3-4.9 2.3-2.5 2.6-3.5 2-6.9-.7-4.6-2.7-8-5.5-9.5-2.6-1.4-4-.5-4 2.4 0 2.1-.4 2.3-6 2.3-6.8.1-8.1-.9-8.4-6.4-.2-4.9-.9-5.9-4.3-6.6-12.4-2.5-14.6-3.6-14.1-7.1.3-1.8 1.2-2.2 6.6-2.6 5.1-.4 6.8-1 8.3-2.9 1-1.3 1.9-3.1 1.9-4.1 0-1.8-3-5-4.8-5-.6 0-2.4-1.1-4-2.5-2.7-2.2-3.5-2.4-9.4-1.8-7.1.6-10.8-.6-10.8-3.6 0-1 1.3-2.3 3.3-3.2 2.7-1.2 3.2-1.9 3.2-4.9 0-3.9-2.2-5.5-8.7-6.5-2.3-.4-4.9-1.8-6.9-3.8-1.8-1.7-4.2-3.6-5.3-4.2-1.5-.8-2.4-2.7-3.3-7-1.2-5.9-3.9-9.4-7.3-9.5-2.3 0-6-2.9-6-4.6 0-.8.9-1.4 2.2-1.4 3.5 0 8.6-4.6 9.9-9.1 1.1-3.7 1.1-4.1-.9-5.5-4.2-2.9-2.7-4.2 4.1-3.8 5.4.4 6.6.8 8.9 3.4 1.5 1.7 3.4 3 4.1 3 .8 0 1.9 1.1 2.5 2.4 1.6 3.6 5.9 6.3 7.5 4.7.9-1 .9-1.5-.4-2.4-1.3-1-1.3-1.6-.2-3.7 1.1-2.2 1-2.7-.8-4.3-1.2-.9-3-1.7-4-1.7-2.4 0-9.6-4.4-12.7-7.7-1.7-1.9-2.6-2.2-3.6-1.4-.9.8-2.4.5-5.5-1-2.3-1.1-4.6-1.7-5.1-1.4-.5.3-1.9.1-3-.5-1.6-.9-2-2.1-2-6.6 0-3.5-.4-5.6-1.2-5.8-6.9-1.8-7.3-2.1-8.4-6.6-1-4.1-1.4-4.5-4.5-5-2.3-.3-3.5-1.1-3.7-2.4-.6-3 2.6-4.6 9.1-4.6h5.8l-.3-3.7c-.3-3.3-.8-4-3.9-5.5-2.4-1.1-4-2.8-4.7-4.7-.8-2.2-2-3.2-4.4-3.9-3.3-.8-3.3-.9-3.3-6.8 0-7-.6-8-4.5-8.9-1.6-.4-3.3-1.1-3.6-1.7-1-1.6 3.3-4.8 6.3-4.8 3.9 0 8.3-2.8 8.3-5.2 0-1.2-1.4-3.6-3.1-5.4-3-3.1-3-3.3-1.5-5.6 1.7-2.6 1.3-3.8-1.4-3.8-2.1 0-5-3.1-5-5.3 0-.9.6-1.7 1.4-1.7 2.9 0 2.7-2.1-.4-5.1-2.5-2.5-3.6-3-5.9-2.6-2.2.5-3.9-.1-7-2.3-3.9-2.9-7-3.7-8.4-2.4z"/><path d="M390.6 433.6c-2.9 2.9-1.5 6.4 2.5 6.4 2.3 0 3.4.8 5.1 3.6l2.2 3.7 2.3-2.7c3.5-4.1 3-6.2-2.4-9.6-5.4-3.4-7.5-3.7-9.7-1.4zm150.4.1c-5.4 1-6.8 4.8-2.2 5.9 1.5.4 3.6 1.3 4.7 2 2.2 1.6 5.1 1.8 5.9.5.3-.4-.2-2.7-1.1-5-1.6-4.1-2.1-4.3-7.3-3.4zm-533.3 2c-.4.3-.7 1.8-.7 3.2 0 1.6-.8 3.1-2.1 3.9-2.1 1.3-2.2 3.6-.5 14.2.2 1.4.4 3.1.5 3.7.2 1.9 4.2 1.6 5.7-.5.7-.9 1.4-3.3 1.4-5.3 0-5.8 1.1-9.6 3.2-11.9 1.7-1.8 1.8-2.3.6-3.8-2.9-3.7-6.4-5.3-8.1-3.5zM136 439c0 3 .5 4.2 2.2 5.1 1.2.6 3.2 2.2 4.6 3.6 3 3 5.6 2.6 6-.9.2-1.9-.4-3.3-1.9-4.5-1.3-1-3.5-3-5-4.6-4-4-5.9-3.6-5.9 1.3zm351.5-2.2c-.3 1.2.3 3.7 1.6 6.2 1.8 3.5 2 4.7 1.1 7.6-1.1 3.7-.3 4.9 2.7 3.9 3.4-1.1 4.4-5.6 2.9-12.7-1.4-6-1.6-6.3-4.5-6.6-2.4-.2-3.3.2-3.8 1.6zm149.8 4.9c-2.9 2-2.9 4.1-.1 5.2 3.9 1.4 5.9.2 5.6-3.3-.3-3.6-2.3-4.2-5.5-1.9zm-512.2 10.8c-1.4 6.3-.9 9.1 2 10 1.1.4 3.5 2.3 5.4 4.2 2.6 2.7 3.5 4.5 3.5 7 0 4.3 1.6 4.9 8.5 3.4 6.9-1.6 7.6-3.5 2.5-6.1-3-1.5-4-2.6-4-4.5 0-1.3-.5-3.6-1.2-5-.9-2.1-1.8-2.6-4.2-2.5-5.9.3-5.9.3-5.2-4.1.5-3.2.3-4.6-1-6-3.1-3.5-5-2.4-6.3 3.6zm136.2-1.8c-1.6.3-2.3 1.1-2.3 2.8 0 2.9 1.4 3.9 4.6 3.1 1.9-.5 2.4-1.3 2.4-3.6 0-3-.3-3.2-4.7-2.3zm163.2-.2c-.5.2-2.2.6-3.7.9-3.7.8-3.6 3.5.2 4.2 3.6.8 5.2 2.5 6.5 7.3.7 2.5 1.7 3.7 3.2 3.9 2.7.4 3.9-1.7 4.6-8.1.4-4.6.3-5-2.7-6.8-2.9-1.7-5.6-2.2-8.1-1.4zm85.5 2.7c0 3.1.3 3.4 6 5.2 6.5 2 9 1.7 9-1.2 0-1.3-1.4-2.3-5.5-3.6-3-.9-5.7-2.1-6-2.6-1.4-2.3-3.5-.9-3.5 2.2zm-487.7-1.1c-1.8 1.8-1.7 10.4.1 11.8 2.7 2.3 5.5-.8 5.6-6.1 0-.9-1-2.9-2.2-4.3-1.9-2.1-2.5-2.4-3.5-1.4zm283.1.4c-.8 2.1 1.5 8.5 3.4 9.2 1.8.8 6.2-3.9 6.2-6.7 0-1.3-1.1-2.2-3.7-2.9-4.9-1.4-5.3-1.4-5.9.4zm257.2 1.1c-1.4 3.6-.7 4.2 3.7 3.7 7.3-.9 7.6-3.4.6-4.7-2.9-.5-3.8-.3-4.3 1zM392 461.4c-1.9.7-3.5 1.8-3.4 2.4.1.7.2 1.6.3 2.2 0 .5 1.4 1 3 1s4.5.7 6.4 1.5c2 .8 4.3 1.5 5 1.5 2.1 0 5.7-3.5 5.7-5.5 0-1.4-.6-1.6-3-1.1-2.3.4-3.6 0-5-1.4-2.3-2.3-4-2.4-9-.6zm-69 4.1c-1.3 1.3-3.2 2.7-4.2 3.1-1.6.5-1.9 1.4-1.6 5.7l.3 5.2h4c3.4 0 4-.3 4.3-2.3.2-1.3 1.1-2.6 2-2.9 3.4-1.2 8.2-5.4 8.2-7.2 0-1.4-1.2-2.2-4.4-3-5.9-1.5-5.9-1.5-8.6 1.4zm158.2.7c-1.9 1.9-1.4 7.2.8 9.6 1.2 1.2 2.5 2.2 2.9 2.2.5 0 1.1.9 1.4 2 .8 3.2 3.7 2.4 5.3-1.5 1.9-4.6 1.8-5.2-1.1-5.9-1.6-.4-2.7-1.6-3.1-3.4-1-4-3.8-5.4-6.2-3zm-202.8 5.3c-1 2.6 1.5 4.4 6.9 4.7 4.6.3 5.2.6 6.9 3.8 2.6 4.8 6.6 8.2 8.8 7.5 2.5-.8 5 .4 5 2.5 0 1.9 1.9 3 5 3 2.7 0 3.4-1.7 2-5.1-1-2.4-1.8-2.9-3.9-2.7-2.1.2-2.9-.4-4.6-3.6-1.1-2.1-2.9-4.2-4-4.7-1.1-.4-3.3-2.1-4.8-3.8-2.7-2.9-3.3-3.1-9.8-3.1-5.3 0-7.1.4-7.5 1.5zm-26 .9c-1.5 1.2-1.7 1.9-.8 3.2 1.9 3.2 4 3.9 6.8 2.4 3.1-1.6 3.4-4.5.7-6-2.7-1.4-4.4-1.3-6.7.4zM550 482c0 4.5 1.1 4.9 6.5 2.6l3-1.2-2.9-2.7c-4.4-4.1-6.6-3.6-6.6 1.3zM4.2 479.8c-2.1 1.4-.2 4.1 4.4 6.3 2.4 1.1 4.4 2.5 4.4 3.3 0 .7.8 2 1.8 3 1.8 1.5 2 1.5 3.5-.2 2.4-2.6 2.1-7.2-.7-10.7-2.2-2.7-2.6-2.9-4.9-1.6-1.8 1-3 1-4.5.2-2.4-1.3-2.3-1.3-4-.3zm124.4.9c-1.2 1.2-.6 4.2 1.5 7.8 1.6 2.7 2 4.5 1.5 7.8-.6 4.6 1.1 8.1 3.8 7.5.8-.2 2.1.5 2.9 1.6.9 1.3 3.1 2 6.6 2.4l5.3.5-.7-3.4c-.9-4.3-2-5.7-6.4-7.7-2.6-1.2-3.7-2.4-3.9-4.3-.2-1.5-1.2-3.5-2.3-4.5-1-.9-1.9-2.4-1.9-3.3 0-1.8-5.3-5.5-6.4-4.4zm-97 2.8c-.3.8-.1 2.7.4 4.1 1.3 3.2 5.3 3 5.8-.2.6-3.9-4.9-7.3-6.2-3.9zm323.9.5c-.3.5-2.2 1-4.1 1-4.9 0-5.6 2.5-1.5 5.7 1.8 1.4 3.7 3.6 4.2 5 .8 2.1 1.5 2.4 5.2 2.2 5.6-.3 6.7.5 6.7 4.6 0 2.7.6 3.7 3.6 5.5 2 1.1 4.3 1.9 5.1 1.6 2-.8 3.6-5.7 2.3-7-.5-.5-1-2.3-1-3.9 0-2.3-.6-3.1-3-4-1.7-.6-3-2-3.2-3.2-.2-1.3-1.1-2-2.5-2-3-.1-7.2-2.5-7.9-4.7-.6-1.9-2.9-2.4-3.9-.8zm32.1-.3c-1.5 1.5-.3 3.8 4.5 8.4 3.2 3.1 6 4.9 7.5 4.9 2.2 0 2.4-.4 2.4-4.8 0-6-.6-6.9-5.5-7.7-2.2-.3-4.9-.8-6.1-1-1.2-.3-2.4-.2-2.8.2zm32.1 0c-1.6 1.5-.5 3.4 3.3 5.8 3.4 2.2 4 3 4 6 0 5 2.9 7.5 8.6 7.5 2.5 0 5.4-.5 6.5-1.1 2-1 2-1.1.3-3-.9-1-2.5-1.9-3.6-1.9-1.9 0-2.1-.4-2.2-6-.1-2.8-.5-3.5-2.1-3.5-1.1 0-3.1-1-4.5-2.3-2.3-2.1-8.8-3.1-10.3-1.5zM158 490.1c0 4.7.2 5.1 3.3 6.4 1.7.7 4.8 3 6.6 4.9 1.9 2 3.9 3.6 4.3 3.6.4 0 .8-1.7.8-3.8 0-5.1-4.9-13.1-9-14.8-5.4-2.3-6-1.9-6 3.7zm473.5-1.7c-3 4.5 1.7 9.4 5.5 5.6 2.5-2.5 2.6-5.6.1-7-2.9-1.5-3.9-1.3-5.6 1.4zm-366.1 6.7c-1 1.2-2.9 2.5-4.1 3-3.2 1.2-2.8 3 1.1 5.7 2.6 1.8 3.2 2.8 2.8 4.7-.5 2.9 2 4.4 4.3 2.5 1.1-.9 1.5-3.4 1.5-9.6 0-7.5-.2-8.4-1.8-8.4-1.1 0-2.7 1-3.8 2.1zm56.6 4.8c-4.3 1.2-5.5 9.1-1.3 9.1 3.1-.1 5.5-2.7 5.6-6.1.2-3.5-.6-4-4.3-3zm-27.4 2c-2.6 2.9-1.4 4.2 6.1 6.5 2.7.9 3.8-1.9 2.4-5.8-1.3-3.2-5.9-3.6-8.5-.7zm-292.3.8c-1.9.4-2.3 1.1-2.3 3.8 0 2.7.4 3.4 2.3 3.7 1.8.2 2.3 1 2.5 4.7.2 2.5 1 5.4 1.8 6.5.8 1.1 1.4 2.8 1.4 3.7 0 4.3 7.3 6.5 10.4 3 2.3-2.5 1.2-14.2-1.5-16.7-1.1-1-1.9-2.6-1.9-3.6 0-4.3-5.5-6.5-12.7-5.1zm501.7 3.8c-1.7 2-2.6 9.5-1.1 9.5.6 0 1.4-.6 1.7-1.4.3-.8 2-1.7 3.7-2 1.8-.3 3.8-1.5 4.5-2.6 1.1-1.8.8-2.1-2.4-3.5-4.5-1.9-4.9-1.9-6.4 0zm-473.2 3c-1.7 3.8.7 5.9 5.6 5 4.6-.9 4.9-3.7.4-5.9-4.1-2.1-4.6-2-6 .9zm419.3-.6c-2.7 2.7-2.7 4.9.2 6 3.7 1.4 4.8 3.6 4.6 8.8-.3 7 .3 7.6 7 6.8 6.6-.8 7.7-1.6 8.6-5.7.9-4-.9-5.7-7.5-7.2-4.9-1.1-5.4-1.5-6.9-5.6-1.9-5.1-3.3-5.8-6-3.1zm-317.4 4.9c-1 1.1-1.7 3.5-1.7 6 0 4.1.4 4.7 6.9 9.2 1.1.8 2.1 2.2 2.1 3.1 0 2.4 2.5 4.1 6.2 4.2l3.3.2v-14l-3.1.3c-4.2.4-8.2-2.9-8.6-7.1-.4-3.8-2.7-4.6-5.1-1.9zm21-1.1c-1.9 1.9-.5 4.5 3.3 6.1 2.6 1.1 4.5 2.8 5.5 4.9 2.1 4.3 4.8 4.3 6.6.2 1.1-2.8 1-3.6-.7-6.7-2.6-4.9-4.8-6.1-7.1-4-1.6 1.4-2 1.5-3.7.2-2.2-1.6-3-1.7-3.9-.7zm182.6.8c-3.6 1.6-3.8 1.8-2.3 4.6.8 1.4 2.1 1.9 5 1.9 4.8 0 5.5-1.1 3.5-5-1.8-3.4-1.8-3.4-6.2-1.5zm222 3.1c-3.8 1.6-4.6 2.8-3.8 5.4.7 2.2 3.5 2.6 6.8.9 2.8-1.5 3.7-2.8 3.7-5.7 0-2.6-1.9-2.8-6.7-.6zm-309.7 6.9c-.3.8-1.4 1.5-2.5 1.5-1.4 0-2.3.9-2.7 2.6-.8 3.3.4 4.5 5.2 4.9 2.1.1 4 .8 4.2 1.4 1.4 4.1 4.9 4.6 9.9 1.5l2.2-1.4-2.2-4.8c-1.9-4.3-2.7-5.1-6.5-6.1-5.6-1.5-6.9-1.4-7.6.4zm101.7 5.6c-.8.8-1.3 4-1.3 8.1 0 5.4-.4 7.2-2 8.8-1.2 1.2-1.7 2.6-1.3 3.7 1.4 3.6 6.5 10.3 7.4 9.8 1.2-.8 1.2-11.2 0-11.9-.5-.3-1.1-1.5-1.4-2.6-.4-1.6.6-2.5 5-4.7 3-1.6 5.9-3.6 6.4-4.5 1.4-2.6-1.6-6.8-5-6.8-1.4 0-3.5-.3-4.6-.6-1.1-.3-2.6.1-3.2.7zm-317.6 3.8c-.3 1.5-1.3 2.1-3.2 2.1-3.7 0-6.5 1.7-6.5 4.1 0 2.8 1.7 5.6 3.9 6.9 1.6.8 2.3.4 4.2-2.5 1.3-1.9 3.4-3.9 4.7-4.5 3.2-1.4 2.8-7.3-.4-7.8-1.5-.2-2.3.3-2.7 1.7zm143.6.8c-4.1.8-4.5 2.7-1.3 6.1 1.7 1.8 3 3.9 3 4.8 0 4.2 2.5 9.6 4.8 10.5 4.2 1.6 6.2-.4 6.2-6.4 0-3.1-.6-6.1-1.5-7.3-.8-1-1.5-2.6-1.5-3.5 0-3.7-3.9-5.3-9.7-4.2zm153.9 5.5c-1.8 1.8-1.5 5.2.6 6.4 1.2.8 2.6.7 5-.3 5.1-2.1 3.8-7.3-1.8-7.3-1.4 0-3.1.5-3.8 1.2zm-319.5 3.5c-.4.3-.7 2-.7 3.7 0 2.5 1 4 5 7.4 4.2 3.6 5.3 4.2 6.5 3.2 2.3-1.9 1.8-4.8-1.2-7.3-1.4-1.2-3.9-3.4-5.5-5-3.2-3-3.2-3-4.1-2zm226.9 9.2c-1.7 1.8-1.7 2 .2 3.6 1.1 1 3.2 2.8 4.6 4.1 1.5 1.3 3.1 2.4 3.6 2.4 2 0 5 5.4 5 9.1 0 3 .6 4.2 2.5 5.5 1.3.9 2.7 2.4 3 3.5 1.6 5 8.3-.5 7.2-6-.7-3.2.4-4.9 4.6-7.5 2-1.2 2.7-2.4 2.5-3.9-.3-2.3-.5-2.3-10.9-2.6-3.3-.1-6.9-3.5-6.9-6.7 0-2.8-2.4-4.2-4.4-2.5-1 .8-1.6.9-2.1.1-1.1-1.7-7.1-1.2-8.9.9zm221.8.5c-.8 3.4.4 6.6 2.4 6.6 2.5-.1 5.2-2.5 5.2-4.7 0-4.5-6.5-6.2-7.6-1.9zm-259.9 4.8c1.7 5.4 1.7 7.9.1 9.7-3.1 3.4.4 6.7 6.8 6.2 1.6-.1 3.6-.7 4.3-1.3 2.1-1.7 1.6-8.2-.9-11.4-3.8-4.9-4.5-5.4-7.8-5.4-2.9 0-3.2.2-2.5 2.2zm448.2.8c-1.3 4.9 1.7 6.6 5.3 3 2.3-2.3 2.6-4 .8-4-.7 0-2.3-.3-3.4-.6-1.6-.4-2.3 0-2.7 1.6zM1.9 561.2c-.7 6.8-.3 8 2.3 9.4 1.4.7 4.3 2.9 6.3 4.9 2.1 1.9 4.4 3.5 5.1 3.5 4 0-1.7-14.8-6.7-17.6-3.1-1.7-6.9-1.8-7-.2zm328.6 1.2c-1.1.8-1.6 1.9-1.2 3 1.6 4 6.7 2.5 6.7-2 0-2.8-2.5-3.2-5.5-1zm111.7 4.7c-2.4.7-3.2 1.4-2.8 2.5.3.9.6 1.8.6 2 0 .2 1.5.4 3.3.4 3.7 0 5.7-1.5 5.7-4.2 0-2-1.6-2.2-6.8-.7zm-93.9 4.9c-2.7 4.2-.2 15.2 3.6 15.8 3.1.5 2.8 4.9-.4 6.4-4.9 2.2-2.5 4.2 4 3.2 3.3-.4 4.5-1.1 4.5-2.3 0-.9.9-3.4 1.9-5.5 2.4-4.6 2.3-9.1-.2-9.1-1 0-2.1-.5-2.5-1.1-.4-.6-1.7-1.6-2.9-2.2-1.2-.7-2.3-2.4-2.5-3.9-.4-3.5-3.7-4.3-5.5-1.3zm-195.6 3.8c-2.6 2.8-2.1 5.6 1.3 7.5 3.8 2.3 5 1.5 5-3.2 0-5.7-3.1-7.8-6.3-4.3zm21.6-1.2c-.8.3-1.3 2.4-1.3 4.8 0 4.6 2.2 7.6 5.4 7.6 1 0 3 .6 4.4 1.4 3.6 1.9 14.5 5.6 16.5 5.6.9 0 1.9-1 2.3-2.2.8-2.5-1.7-4.8-5.3-4.8-1.6 0-2.3-.6-2.3-1.9 0-1-.9-3-2.1-4.4-1.9-2.6-2.1-2.6-4.5-1-2.7 1.7-3.8 1.2-5.8-2.9-1.1-2.2-4.7-3.3-7.3-2.2zm51.4 7.9c-1.5 1.4-2.7 3-2.7 3.5s-1 1-2.1 1.2c-1.2.2-3.1 1.5-4.2 3-1.7 2.3-1.8 2.9-.7 4.4 1.1 1.2 2.5 1.5 6 1.1 3-.4 6.4.1 10.4 1.4 5.3 1.8 6 1.9 8.2.4 4.7-3.1 4-9.5-1.1-9.5-2.4 0-6.5-4.2-6.5-6.6 0-2.3-4.3-1.6-7.3 1.1zM4 584.9c-1.3 2.5-1.3 6.8 0 7.6.6.3 1 1.5 1 2.5s.9 2.2 2 2.5c1.1.3 2 1.3 2 2 0 .8-.9 1.9-2 2.5-3.2 1.7-2.3 3 2 3 3.5 0 4.2-.4 5-2.8.6-1.5 1.5-3.5 2-4.4 1.5-2.7 1.2-5.8-.7-6.5-2.1-.7-7.3-6-7.3-7.4 0-1.7-2.9-.9-4 1zm472.6 1c-.4.5-2 1.2-3.7 1.6-3.8.9-5.6 4.3-3.9 7.5 1 1.9 1.7 2.1 4.8 1.5 4.9-.9 6.4-2.5 6.6-7.1.1-2.8-.3-3.9-1.6-4.2-.9-.2-1.9.1-2.2.7zm-296.1 10.9c-2.2.2-4.4.7-4.8 1.1-1.7 1.7.5 5.7 4.3 7.9 3 1.7 4.1 3 4.6 5.7.7 3.8 5.8 8.5 9.4 8.5 3 0 7-2.9 7-5.1 0-2.2-1.4-3.1-6-3.9-2.7-.4-3.6-1.1-3.8-2.9-.2-1.3.1-2.8.7-3.4 1.6-1.6-1.4-6.3-4.6-7.3-1.5-.5-4.6-.8-6.8-.6zm170.2 10.8c-1 1.3-2.1 4-2.4 5.9l-.6 3.5h4.5c3.8 0 4.6-.4 5.6-2.5 1.7-3.6 1.5-5.9-.6-7.8-2.6-2.3-4.4-2.1-6.5.9zm-95.2.1c-1.1.3-2.8 1.2-3.7 2.1-1.7 1.4-1.6 1.6 1.4 3.8 3.8 2.8 4.2 2.9 6.2.8 2.1-2 2.1-6 0-6.8-.9-.3-1.6-.5-1.7-.5-.1.1-1.1.4-2.2.6zm-37.2 6.2c-3 2.5-2.9 3.3.9 6.5 3.4 2.7 7.6 3.4 9.6 1.4.9-.9 1.7-.7 3.5 1 3 2.9 4.5 2.8 5.7-.4 2.4-6.3-.2-8.5-11.5-9.7-5-.6-6.4-.4-8.2 1.2zm144.4 5.8c-1.3 1.3-.7 5.2 1 6.2 1.2.6 2.6.5 4.6-.5 2.5-1.3 2.7-1.7 1.5-3.2-2.4-3.1-5.5-4.2-7.1-2.5zm-358 1.9c-3.3 1.8-3.1 3 .6 5.8 3.7 2.7 6.2 1.2 6.2-3.5 0-4-2.3-4.8-6.8-2.3zm476.9-.9c-.4.4-3.1 1.3-5.9 1.8-6.6 1.3-7.7 4.1-2 5 2.1.3 4.7.8 5.9 1 3 .6 5.4-1.5 5.7-5 .2-2.9-1.9-4.5-3.7-2.8zm-279.9 5c-.4.3.4 2.1 1.8 3.9 1.4 1.8 2.5 3.7 2.5 4.2s.9 2.1 2.1 3.6c2.4 3 6.9 3.5 9.3 1 2.1-2.1 1.3-3.2-4-5.6-2.7-1.1-5-3-5.9-4.8-1.4-2.8-4.3-3.9-5.8-2.3zM238 636c-.8.5-2.8 1.1-4.3 1.5-2.7.5-2.8.7-2.5 6.8.3 5.5.6 6.2 2.5 6.5 1.4.2 3.4-1 6.1-3.7 4.6-4.7 6.2-5.1 6.2-1.8 0 4.3 5 6.5 6.8 2.9 1.5-2.8-1-10.5-3.8-11.9-2.9-1.5-8.8-1.6-11-.3zm116.5.9c-.3.6-1.4 1.1-2.5 1.1-3.1 0-3.4 3.2-.5 5.7 2.9 2.6 6.3 2.9 8.8 1 1.6-1.1 1.6-1.4 0-4.7-1.8-3.5-4.6-5-5.8-3.1zm125.3 10.2c-5.4 4-2.3 8.9 4 6.3 3.4-1.5 4.4-4.8 2-7.2-1.7-1.7-2.9-1.5-6 .9zm-7.3 12.9c-.3 1.1-1.1 2-1.6 2-.6 0-.9 1.2-.7 2.7.3 3.1 3.8 4.3 6.4 2.3 2.1-1.8 1.8-6.7-.5-8-2.6-1.4-2.9-1.3-3.6 1zm-212.9 3.7c-1 1.1-.7 5.8.6 7.1 2.6 2.6 5.8.8 5.8-3.4 0-1.5-5.4-4.7-6.4-3.7zm233.4 8.8c-1.8 2.2-.8 4.7 2.4 5.8 2.5.8 3.2.7 4.8-1.3 1.7-2.1 1.7-2.4.2-4.1-2-2.3-5.7-2.5-7.4-.4z"/></svg>